<?xml version="1.0" encoding="utf-8"?>
<!-- Generator: Adobe Illustrator 15.1.0, SVG Export Plug-In  -->
<!DOCTYPE svg PUBLIC "-//W3C//DTD SVG 1.1//EN" "http://www.w3.org/Graphics/SVG/1.1/DTD/svg11.dtd" [
	<!ENTITY ns_flows "http://ns.adobe.com/Flows/1.0/">
]>
<svg version="1.1"
	 xmlns="http://www.w3.org/2000/svg" xmlns:xlink="http://www.w3.org/1999/xlink" xmlns:a="http://ns.adobe.com/AdobeSVGViewerExtensions/3.0/"
	 x="0px" y="0px" width="23px" height="23px" viewBox="0 0 23 23" overflow="visible" enable-background="new 0 0 23 23"
	 xml:space="preserve">
<defs>
</defs>
<path fill="#FFFFFF" d="M11.5,0C5.148,0,0,5.147,0,11.501C0,17.852,5.148,23,11.5,23S23,17.852,23,11.501C23,5.147,17.852,0,11.5,0z
	 M5.402,6.716c0-0.524,0.289-0.791,0.766-0.791h10.604c0.502,0,0.712,0.267,0.712,0.791v0.612c0,0.525-0.21,0.742-0.712,0.742H6.168
	c-0.477,0-0.766-0.217-0.766-0.742V6.716z M5.402,11.209c0-0.525,0.289-0.833,0.766-0.833h10.604c0.502,0,0.712,0.308,0.712,0.833
	v0.611c0,0.524-0.21,0.781-0.712,0.781H6.168c-0.477,0-0.766-0.257-0.766-0.781V11.209z M17.562,16.313
	c0,0.523-0.229,0.739-0.732,0.739H6.227c-0.477,0-0.745-0.216-0.745-0.739v-0.612c0-0.525,0.269-0.795,0.745-0.795H16.83
	c0.504,0,0.732,0.27,0.732,0.795V16.313z"/>
</svg>
